PathFileType	4	(X/Y/Z)	T1_P2_NoVision_Movement_1_0-729.trc
DataRate	CameraRate	NumFrames	NumMarkers	Units	OrigDataRate	OrigDataStartFrame	OrigNumFrames
60	60	4	27	m	60	364	729
Frame#	Time	RHip			RKnee			RAnkle			RBigToe			RSmallToe			RHeel			LHip			LKnee			LAnkle			LBigToe			LSmallToe			LHeel			Neck			Head			Nose			RShoulder			RElbow			RWrist			RThumb			RIndex			RPinky			LShoulder			LElbow			LWrist			LThumb			LIndex			LPinky		
		X1	Y1	Z1	X2	Y2	Z2	X3	Y3	Z3	X4	Y4	Z4	X5	Y5	Z5	X6	Y6	Z6	X7	Y7	Z7	X8	Y8	Z8	X9	Y9	Z9	X10	Y10	Z10	X11	Y11	Z11	X12	Y12	Z12	X13	Y13	Z13	X14	Y14	Z14	X15	Y15	Z15	X16	Y16	Z16	X17	Y17	Z17	X18	Y18	Z18	X19	Y19	Z19	X20	Y20	Z20	X21	Y21	Z21	X22	Y22	Z22	X23	Y23	Z23	X24	Y24	Z24	X25	Y25	Z25	X26	Y26	Z26	X27	Y27	Z27
365	6.083333333333333	442.67340152033734	3653.9044948138185	546.4704970016601	821.7412729877989	3671.706210275391	537.0772851363583	1235.6698843881022	3792.0072251698493	616.344413036201	1305.365636753473	3632.659020429677	592.7424503613655	1277.0276886990455	3638.3222536900607	513.2604329199431	1282.615704695917	3835.2656035109108	654.4206945548183	453.5200400678405	3509.1736262352256	735.0216512628583	854.796912344311	3539.036477866895	744.7332478250064	1229.0200063365264	3614.1173516622234	753.6648881338858	1326.0904214272862	3556.2787917355868	694.0425658810889	1272.8932854296495	3458.5786058972003	711.0796559623785	1271.1857596870148	3642.960043146659	743.1612631828959	-112.02740896217351	3535.3473755740956	650.7221722668606	-362.97595535292623	3478.982057785535	620.8401574140795	-216.042863271149	3435.99455573617	587.384309862143	-44.71256011545322	3665.406091478869	551.3339928948468	195.27936129885896	3780.51607138291	504.8399869682579	412.880791788916	3702.0835899470158	385.8553296877455	515.9006424642015	3659.8813442005735	305.6700324179174	522.2409331960223	3700.397564215275	302.65462677060935	525.1493249508555	3716.8522713996967	310.3360104716963	-17.298717148629414	3548.7428984298417	843.4831808001196	237.69992050169915	3450.2268163056474	849.256361252123	488.53964895922695	3444.398077955693	843.2031588780206	594.701106113934	3433.436039621159	813.538235802915	604.5345920408307	3417.7496312120106	822.9773067757751	603.8443669464248	3394.7442590207897	847.7780524055706
366	6.1	442.67474951288125	3653.7963003966124	546.4734153306902	816.141592336542	3655.5077530365184	523.8421677351721	1235.6189993932126	3792.0258288548343	616.2518149743412	1304.547662324226	3633.195722117327	587.3576416155194	1284.7476244825184	3660.0870237083923	518.6121613164239	1282.4733637815273	3835.4365672000495	654.3925267012886	453.49893671830193	3508.9738122694157	735.0098286224282	849.0247159401889	3534.712175273396	743.5224180749209	1231.5060399181743	3611.389547169086	746.7562702430431	1318.4675555936838	3535.8443161867303	688.6474759909337	1273.639147255519	3466.2191853535905	727.5023546546358	1273.5710132606778	3637.686419538239	740.1443170347293	-111.7991341620629	3535.28108969358	650.6841070677044	-362.92628250580503	3479.1351951207625	620.8745754497511	-215.9637987683222	3435.798003571732	587.2695061787693	-44.67726743247982	3665.246816802553	551.241744320394	195.38123796714297	3780.7550735768905	505.0199462659879	409.30011364124636	3706.612520160033	387.8874901998053	519.1009271526634	3679.838253437508	309.3064958460669	522.0645181500781	3700.323295377087	302.63653875803504	524.9318628750946	3715.8127072037737	310.2453586388432	-22.052632461260476	3542.1277609414374	845.3719969532222	237.65447439748044	3450.105508013631	849.2363556319895	488.5704475462602	3444.244465934575	843.1016776560459	590.3954892361378	3432.5296644042332	812.5594412696123	604.5192629387096	3417.8726200957594	822.9208239257065	603.7493525893938	3394.4345225884495	847.5410536072402
367	6.116666666666666	442.58765017476753	3653.937644471995	546.5095312224646	807.3131185820914	3657.943088263606	524.7158871754036	1229.0663316208859	3788.9537323746995	613.7721533549037	1300.369031485975	3631.0735578270364	591.1801624356079	1278.9537936264126	3656.4793306474285	516.3070751145664	1270.3212171518119	3809.4777492858193	635.2115223643872	449.80667350239275	3513.1606942562926	737.4933572916608	855.3795731647597	3539.1538791680327	745.0965488949573	1229.0065526189708	3613.971442263447	753.7026022989241	1326.0559142276668	3555.749016168134	693.9738710463594	1285.1893164543064	3471.9439267809485	730.2062714505058	1263.767023944215	3627.1964392741893	729.1177715185335	-107.30260702576604	3531.065920618039	648.4133788910617	-362.8582888144915	3478.9482486868574	620.8165410540081	-215.9917238767851	3435.712070640783	587.19340964153	-44.7068539444388	3665.260610483891	551.317913204403	191.1806166940539	3785.6401612085238	507.26545184706873	418.0021113176994	3705.9041892764217	386.8837839253552	519.3797349596865	3680.8701430948613	309.3988000865457	525.2146649772512	3719.407240801166	306.0773027326182	521.6529342058948	3695.8113769249294	306.74454729537223	-22.111696274991917	3541.9442931514322	845.2961003654543	237.5652292495029	3450.008120405037	849.1505706164207	485.42693934940576	3424.0025975621616	836.0053127812483	590.5402172193931	3432.418758598599	812.5602101537065	609.8725903514214	3421.3331727304235	824.3653776896015	599.8258161655403	3374.0729994490025	840.2119926981014
368	6.133333333333334	452.22710087055367	3652.663029135446	545.0405021618968	816.3573139226044	3656.589668362235	523.0979262968817	1230.6617404111755	3808.335010582626	617.7049709999252	1299.392444502471	3631.3925367991887	585.4704476193253	1278.522730288178	3656.168090428912	515.8279273128599	1270.5884830102395	3809.411577431102	635.1885602157536	453.67301189162714	3508.697470731148	734.9077216755569	861.7309040566714	3542.8592387915287	746.2770101478394	1231.4094321562877	3608.76841408226	750.6824340835982	1318.3878530644135	3534.870719467127	688.3292365077325	1277.893456638404	3457.1145151974797	716.8531930956588	1266.2645059481506	3622.026977450304	726.2530805903107	-111.99543775872195	3535.078326714102	650.7255250993443	-362.85972015851974	3478.86146672335	620.7964290705703	-215.57659581870834	3416.165989340147	581.5311062431339	-44.956630546062186	3644.14302780958	546.1957423596554	191.16714235923962	3785.660917803325	507.2533900875404	409.38704121600443	3706.6007045502515	387.9397264180859	518.8896875104981	3680.3728500378684	309.26121286874024	521.7810215958941	3700.611505215665	302.8337719092783	521.4003863891423	3695.795893856843	306.9734888573232	-22.11050215417159	3538.620125538677	848.606766307453	237.65715230582404	3449.9034783443285	849.1665141772111	491.02596151017883	3427.84740251278	837.8052414255723	593.5801018046549	3428.6532291498233	810.2822135670874	609.7822873990592	3420.572167568599	824.2550750982921	604.8901319089312	3376.939951942275	841.1706158133862
